<svg id="Capa_1" data-name="Capa 1" xmlns="http://www.w3.org/2000/svg" viewBox="0 0 512 512"><path d="M466,444.63A72.26,72.26,0,0,1,432,506H105.29v-.08a101.75,101.75,0,0,1,3.95-203.42h.1a113.57,113.57,0,0,1,63.49-106.73,115,115,0,0,1,11.5-.58,113.66,113.66,0,0,1,110.92,88.89C350.93,270.55,404,315,399.86,372.56A72.34,72.34,0,0,1,466,444.63Z" fill="none" stroke="#52abde" stroke-miterlimit="10" stroke-width="9.71"/><path d="M504.51,433.62A72.35,72.35,0,0,1,432.16,506H432a72.34,72.34,0,0,0-32.12-133.41c4.11-57.61-48.93-102-104.61-88.5a113.66,113.66,0,0,0-110.92-88.89c-3.88,0-15.76,2-8.65-.77.45-.2.89-.41,1.34-.6,1-.46,2.08-.9,3.14-1.33.44-.19.9-.37,1.35-.55l1.83-.69,1.14-.41c.5-.19,1-.36,1.51-.54l.94-.32c.54-.18,1.08-.36,1.62-.52l1-.31c.58-.19,1.17-.36,1.75-.53.85-.24,1.72-.48,2.57-.7.45-.12.89-.24,1.33-.34l1.56-.38c.36-.09.73-.17,1.09-.24,1.62-.38,3.26-.71,4.9-1,.93-.17,1.85-.32,2.78-.46l.08,0c.77-.12,1.56-.23,2.35-.33l.82-.11,1.69-.19c.62-.07,1.25-.14,1.89-.19l2.16-.18,2.13-.14.62,0c.88,0,1.76-.07,2.66-.09s1.95,0,2.93,0a113.67,113.67,0,0,1,110.92,88.9c55.67-13.52,108.71,30.89,104.59,88.49A72.35,72.35,0,0,1,504.51,433.62Z" fill="none" stroke="#326fb2" stroke-miterlimit="10" stroke-width="9.71"/></svg>