<svg id="Capa_1" data-name="Capa 1" xmlns="http://www.w3.org/2000/svg" viewBox="0 0 512 512"><path d="M221.92,459.75l.77.84q-.39-.4-.78-.84L207.77,443.5Z" fill="#9438e5"/><path d="M227.36,470.56a21.07,21.07,0,0,0,2,.9A18.82,18.82,0,0,1,227.36,470.56Z" fill="#9438e5"/><path d="M420.1,392.67l-34.67,0-.08.09h0l-7,5.43-20.25-17.47-12.27-10.57-13.09-11.28-9.36-8.07-28.1-24.22-12.18-10.5,4.65-39.59A27.3,27.3,0,0,0,267.92,247l-44.1-12.21a27.82,27.82,0,0,1,18.94-10.05L315.67,218a27.78,27.78,0,0,1,16.21,3.46l46.18,26h0l23.81-2.94,12.72,103.27,1.69,13.72Z" fill="#fff" stroke="#326fb2" stroke-miterlimit="10" stroke-width="9.77"/><path d="M392.92,410.77l-14.34-12.36-.2-.17h0l-20.25-17.47-12.27-10.57-13.09-11.28-9.36-8.07-28.1-24.22-12.18-10.5,4.65-39.59A27.3,27.3,0,0,0,267.92,247l-44.1-12.21-43.69-12.09A20.31,20.31,0,0,0,156.64,233l-11,21.55-29.06-2L98.2,251.38,86.07,354.7,81.3,395.35l-.5,4.25,17.36,1.16,28.76,1.91.09.08,1.31,1.13.78.67h0L156,427.74l1.83,1.57a6.91,6.91,0,0,0,.73-.24,20.12,20.12,0,0,0,6.35-3.76l14.17,16.24a20.31,20.31,0,0,0,28.69,1.95l14.15,16.25.77.84a20.21,20.21,0,0,0,5.32,3.92c.64.33,1.29.61,2,.88a20.64,20.64,0,0,0,9.81,1.19c3.89-.48-2,16.22-2,16.22a21.38,21.38,0,0,1-10.24,6.6l6.35,5.48a20.27,20.27,0,0,0,5.84,3.52l.48.2a20.37,20.37,0,0,0,22.39-5.85l14.05-16.31a20.34,20.34,0,0,0,28.7-2.13l9.27-10.76L319.4,458a20.54,20.54,0,0,0,3.15,2.24l.67.36h0l.79.39.83.37.83.32c.1.05.2.08.3.12a20.68,20.68,0,0,0,4.32,1,20.28,20.28,0,0,0,17-6.08c.26-.28.52-.56.77-.85l9.23-10.69,4.85-5.63a20.13,20.13,0,0,0,2.26,1.69.87.87,0,0,0,.19.1c.31.2.62.39.95.57a20.31,20.31,0,0,0,24.51-3.63c.26-.28.52-.56.77-.85l3.74-4.32A15.84,15.84,0,0,0,392.92,410.77ZM230,465.39" fill="#fff" stroke="#66338c" stroke-miterlimit="10" stroke-width="9.77"/><path d="M239.34,505.24l.49.2-.49-.19Z" fill="#9438e5"/><path d="M324.1,466.18c.22.13.45.25.68.37h0Z" fill="#9438e5"/><path d="M324.79,466.56l.81.4-.12,0C325.24,466.8,325,466.68,324.79,466.56Z" fill="#9438e5"/><path d="M325.6,467l.85.38-.28-.11Z" fill="#9438e5"/><path d="M365.56,441.91l-.37-.19-.39-.24-.19-.14C364.92,441.54,365.23,441.73,365.56,441.91Z" fill="#9438e5"/><path d="M323.23,460.6l.79.39-.12-.05C323.67,460.83,323.44,460.72,323.23,460.6Z" fill="#9438e5"/><path d="M324.85,461.36a2.18,2.18,0,0,1-.27-.11c-.19-.09-.37-.16-.56-.26Z" fill="#9438e5"/><path d="M357.31,445.18l-9.22,10.69c-.25.29-.52.58-.78.85.26-.28.52-.56.77-.85Z" fill="#9438e5"/><path d="M364.61,441.34c.31.2.62.39.95.57l-.37-.19-.39-.24-.38-.24A.87.87,0,0,0,364.61,441.34Z" fill="#9438e5"/><path d="M394.58,433.11l-3.73,4.32c-.25.29-.52.57-.78.85.26-.28.52-.56.77-.85Z" fill="#9438e5"/><path d="M506.14,406.48,482,210.29a7.33,7.33,0,0,0-8.17-6.38l-56.47,7A26.84,26.84,0,0,0,394,240.74L413.4,398.28A26.85,26.85,0,0,0,440,421.81a28.19,28.19,0,0,0,3.29-.2l56.48-7A7.33,7.33,0,0,0,506.14,406.48Z" fill="#fff" stroke="#326fb2" stroke-miterlimit="10" stroke-width="9.77"/><path d="M506.14,406.48,503.49,385a7.69,7.69,0,0,1-5.41,3.3l-59.2,7.29a28.94,28.94,0,0,1-3.46.21,28.16,28.16,0,0,1-24-13.52l2,16A26.85,26.85,0,0,0,440,421.81a28.33,28.33,0,0,0,3.29-.2l56.48-7A7.33,7.33,0,0,0,506.14,406.48Z" fill="#fff" stroke="#326fb2" stroke-miterlimit="10" stroke-width="9.77"/><path d="M94.66,210.86l-56.47-7A7.31,7.31,0,0,0,30,210.29L5.86,406.48a7.33,7.33,0,0,0,6.38,8.17l56.48,7a28.19,28.19,0,0,0,3.29.2A26.85,26.85,0,0,0,98.6,398.28L118,240.74A26.84,26.84,0,0,0,94.66,210.86Z" fill="#fff" stroke="#66338c" stroke-miterlimit="10" stroke-width="9.77"/><path d="M5.86,406.48,8.51,385a7.69,7.69,0,0,0,5.41,3.3l59.2,7.29a28.94,28.94,0,0,0,3.46.21,28.16,28.16,0,0,0,24-13.52l-2,16A26.85,26.85,0,0,1,72,421.81a28.33,28.33,0,0,1-3.29-.2l-56.48-7A7.33,7.33,0,0,1,5.86,406.48Z" fill="none" stroke="#66338c" stroke-miterlimit="10" stroke-width="9.77"/><circle cx="459.06" cy="360.76" r="14.17" fill="#fff" stroke="#326fb2" stroke-miterlimit="10" stroke-width="9.77"/><circle cx="51.7" cy="360.76" r="14.17" fill="#fff" stroke="#66338c" stroke-miterlimit="10" stroke-width="9.77"/><line x1="282.6" y1="425.73" x2="321.36" y2="459.5" fill="none" stroke="#66338c" stroke-miterlimit="10" stroke-width="9.77"/><line x1="244.9" y1="448.82" x2="278.24" y2="477.88" fill="none" stroke="#66338c" stroke-miterlimit="10" stroke-width="9.77"/><line x1="321.96" y1="404.5" x2="360.73" y2="438.28" fill="none" stroke="#66338c" stroke-miterlimit="10" stroke-width="9.77"/><path d="M129.32,402.56l-5.58,7.38a18.23,18.23,0,0,0,3.53,25.54h0A18.25,18.25,0,0,0,152.82,432l5.58-7.38A18.23,18.23,0,0,0,154.87,399h0A18.25,18.25,0,0,0,129.32,402.56Z" fill="#fff" stroke="#326fb2" stroke-miterlimit="10" stroke-width="9.77"/><path d="M163.33,418.07,152.82,432a18.24,18.24,0,0,0,3.52,25.54h0A18.24,18.24,0,0,0,181.89,454l10.52-13.88a18.24,18.24,0,0,0-3.53-25.55h0A18.24,18.24,0,0,0,163.33,418.07Z" fill="#fff" stroke="#326fb2" stroke-miterlimit="10" stroke-width="9.77"/><path d="M196.22,435.05,181.89,454a18.24,18.24,0,0,0,3.53,25.55h0A18.24,18.24,0,0,0,211,476l14.33-18.92a18.24,18.24,0,0,0-3.53-25.55h0A18.24,18.24,0,0,0,196.22,435.05Z" fill="#fff" stroke="#326fb2" stroke-miterlimit="10" stroke-width="9.77"/><path d="M226.13,456,211,476a18.25,18.25,0,0,0,3.52,25.55h0A18.24,18.24,0,0,0,240,498l15.16-20a18.24,18.24,0,0,0-3.53-25.55h0A18.23,18.23,0,0,0,226.13,456Z" fill="#fff" stroke="#326fb2" stroke-miterlimit="10" stroke-width="9.77"/><path d="M378.06,247.46l-46.18-26A27.78,27.78,0,0,0,315.67,218l-72.91,6.74a27.82,27.82,0,0,0-21.5,13.73l-51.39,88.45a12.24,12.24,0,0,0,6.25,17.58l2.11.79a45.7,45.7,0,0,0,52.38-14.9l19.69-25.63s47.33,54.8,99.44-9.19" fill="#fff" stroke="#326fb2" stroke-miterlimit="10" stroke-width="9.77"/></svg>