<svg id="Capa_1" data-name="Capa 1" xmlns="http://www.w3.org/2000/svg" viewBox="0 0 512 512"><path d="M305.63,256.63l.27,0-50,50-.1-.09,49.85-49.85Z" fill="none" stroke="#66338c" stroke-miterlimit="10" stroke-width="10"/><path d="M406.44,172.46l-8.13-8.15L349.52,213l-.14-.14-1.07,1.06a48.75,48.75,0,1,0-42.69,42.69l-49.85,49.85L206.9,257.55a48.75,48.75,0,1,1-44.34-44.41l-48.95-49-5,5c1.62-1.73,3.26-3.44,4.94-5.1a201.42,201.42,0,0,1,292.87,8.47Z" fill="none" stroke="#66338c" stroke-miterlimit="10" stroke-width="10"/><path d="M305.63,256.63l.27,0-50,50-.1-.09,49.85-49.85Z" fill="none" stroke="#66338c" stroke-miterlimit="10" stroke-width="10"/><path d="M403.36,443.77q-2.4,2.6-4.92,5.1A201.44,201.44,0,0,1,117,452.25l-3.51-3.51,49.94-49.89a48.77,48.77,0,1,0,42.38-42.32l50-50,48.95,49A48.77,48.77,0,1,1,349.17,400l49,49Z" fill="none" stroke="#66338c" stroke-miterlimit="10" stroke-width="10"/><path d="M305.9,256.59l-50,50-.1-.09,49.85-49.85h0Z" fill="none" stroke="#66338c" stroke-miterlimit="10" stroke-width="10"/><path d="M247.64,438a48.76,48.76,0,0,1-84.19-39.16l-49.94,49.89-3.32-3.33a201.45,201.45,0,0,1-1.67-276.21l.11-.11,5-5,49,49a48.77,48.77,0,1,0,44.34,44.41l48.87,48.93.1.09-50,50A48.75,48.75,0,0,1,247.64,438Z" fill="none" stroke="#66338c" stroke-miterlimit="10" stroke-width="10"/><path d="M457.44,306.43c0,4.72-.15,9.39-.48,14a200.68,200.68,0,0,1-53.48,123.2l-.12.11L398.13,449l-49-49a48.76,48.76,0,1,0-44.35-44.41l-48.95-49,50-50-.27,0h0a48.77,48.77,0,1,1,42.69-42.69,1.75,1.75,0,0,1,0,.33l1.25-1.25,48.79-48.71,8.13,8.15A200.62,200.62,0,0,1,457.44,306.43Z" fill="none" stroke="#66338c" stroke-miterlimit="10" stroke-width="10"/></svg>